<svg width="84" height="84" viewBox="0 0 84 84" fill="none" xmlns="http://www.w3.org/2000/svg">
<path fill-rule="evenodd" clip-rule="evenodd" d="M20 0C8.95431 0 0 8.9543 0 20V64C0 75.0457 8.9543 84 20 84H64C75.0457 84 84 75.0457 84 64V20C84 8.95431 75.0457 0 64 0H20ZM40.8617 14.3598C40.5276 14.594 40.2737 14.9253 40.1345 15.3089L38.2352 20.4981C36.7457 24.5661 34.3871 28.2605 31.3238 31.3238C28.2605 34.3871 24.5661 36.7457 20.4981 38.2352L15.3089 40.1345C14.9253 40.2737 14.594 40.5276 14.3598 40.8617C14.1256 41.1959 14 41.594 14 42.002C14 42.41 14.1256 42.8081 14.3598 43.1422C14.594 43.4764 14.9253 43.7303 15.3089 43.8695L20.4981 45.7687C24.5661 47.2583 28.2605 49.6169 31.3238 52.6802C34.3871 55.7435 36.7457 59.4378 38.2352 63.5059L40.1345 68.6911C40.2737 69.0747 40.5276 69.406 40.8617 69.6402C41.1959 69.8744 41.594 70 42.002 70C42.41 70 42.8081 69.8744 43.1422 69.6402C43.4764 69.406 43.7303 69.0747 43.8695 68.6911L45.7687 63.5059C47.2583 59.4378 49.6169 55.7435 52.6802 52.6802C55.7435 49.6169 59.4378 47.2583 63.5059 45.7687L68.6911 43.8695C69.0747 43.7303 69.406 43.4764 69.6402 43.1422C69.8744 42.8081 70 42.41 70 42.002C70 41.594 69.8744 41.1959 69.6402 40.8617C69.406 40.5276 69.0747 40.2737 68.6911 40.1345L63.5059 38.2352C59.4378 36.7457 55.7435 34.3871 52.6802 31.3238C51.0385 29.6821 49.0537 34.0354 47.3358 37.8033C45.8482 41.0661 44.5607 43.8899 43.8695 42.002V15.3089C43.7303 14.9253 43.4764 14.594 43.1422 14.3598C42.8081 14.1256 42.41 14 42.002 14C41.594 14 41.1959 14.1256 40.8617 14.3598Z" fill="url(#paint0_linear_61_34)"/>
<defs>
<linearGradient id="paint0_linear_61_34" x1="0" y1="0" x2="84" y2="105" gradientUnits="userSpaceOnUse">
<stop stop-color="#4FC5A8"/>
<stop offset="1" stop-color="#265F51"/>
</linearGradient>
</defs>
</svg>
