<svg width="300" height="84" viewBox="0 0 300 84" fill="none" xmlns="http://www.w3.org/2000/svg">
<path fill-rule="evenodd" clip-rule="evenodd" d="M20 0C8.95431 0 0 8.9543 0 20V64C0 75.0457 8.9543 84 20 84H64C75.0457 84 84 75.0457 84 64V20C84 8.95431 75.0457 0 64 0H20ZM40.8617 14.3598C40.5276 14.594 40.2737 14.9253 40.1345 15.3089L38.2352 20.4981C36.7457 24.5661 34.3871 28.2605 31.3238 31.3238C28.2605 34.3871 24.5661 36.7457 20.4981 38.2352L15.3089 40.1345C14.9253 40.2737 14.594 40.5276 14.3598 40.8617C14.1256 41.1959 14 41.594 14 42.002C14 42.41 14.1256 42.8081 14.3598 43.1422C14.594 43.4764 14.9253 43.7303 15.3089 43.8695L20.4981 45.7687C24.5661 47.2583 28.2605 49.6169 31.3238 52.6802C34.3871 55.7435 36.7457 59.4378 38.2352 63.5059L40.1345 68.6911C40.2737 69.0747 40.5276 69.406 40.8617 69.6402C41.1959 69.8744 41.594 70 42.002 70C42.41 70 42.8081 69.8744 43.1422 69.6402C43.4764 69.406 43.7303 69.0747 43.8695 68.6911L45.7687 63.5059C47.2583 59.4378 49.6169 55.7435 52.6802 52.6802C55.7435 49.6169 59.4378 47.2583 63.5059 45.7687L68.6911 43.8695C69.0747 43.7303 69.406 43.4764 69.6402 43.1422C69.8744 42.8081 70 42.41 70 42.002C70 41.594 69.8744 41.1959 69.6402 40.8617C69.406 40.5276 69.0747 40.2737 68.6911 40.1345L63.5059 38.2352C59.4378 36.7457 55.7435 34.3871 52.6802 31.3238C51.0385 29.6821 49.0537 34.0354 47.3358 37.8033C45.8482 41.0661 44.5607 43.8899 43.8695 42.002V15.3089C43.7303 14.9253 43.4764 14.594 43.1422 14.3598C42.8081 14.1256 42.41 14 42.002 14C41.594 14 41.1959 14.1256 40.8617 14.3598Z" fill="url(#paint0_linear_68_15)"/>
<path d="M173.83 11H182.273L165.475 72.623H157.208L143.664 32H143.312L129.769 72.623H121.501L104 11H112.443L125.723 59.4549H126.075L139.707 19.2623H147.27L160.902 59.4549H161.254L173.83 11Z" fill="url(#paint1_linear_68_15)"/>
<path d="M190.965 59.7131C190.965 61.7787 191.845 63.5 193.604 64.877C195.421 66.2541 197.532 66.9426 199.936 66.9426C203.337 66.9426 206.356 65.709 208.995 63.2418C211.692 60.7746 213.04 57.877 213.04 54.5492C210.519 52.5984 207.001 51.623 202.486 51.623C199.203 51.623 196.447 52.3975 194.219 53.9467C192.05 55.4959 190.965 57.418 190.965 59.7131ZM201.431 29.0738C207.412 29.0738 212.131 30.6516 215.591 33.8074C219.05 36.9057 220.779 41.1803 220.779 46.6311V72.623H213.04V66.7705H212.688C209.346 71.5902 204.89 74 199.32 74C194.571 74 190.584 72.623 187.36 69.8689C184.193 67.1148 182.61 63.6721 182.61 59.541C182.61 55.1803 184.281 51.709 187.623 49.127C191.024 46.5451 195.539 45.2541 201.167 45.2541C205.975 45.2541 209.933 46.1148 213.04 47.8361V46.0287C213.04 43.2746 211.926 40.9508 209.698 39.0574C207.47 37.1066 204.861 36.1311 201.871 36.1311C197.356 36.1311 193.78 37.9959 191.141 41.7254L184.018 37.3361C187.946 31.8279 193.75 29.0738 201.431 29.0738Z" fill="url(#paint2_linear_68_15)"/>
<path d="M237.997 72.623H229.905V30.4508H237.645V37.3361H237.997C238.817 35.0984 240.488 33.2049 243.01 31.6557C245.589 30.0492 248.11 29.2459 250.573 29.2459C252.918 29.2459 254.912 29.5902 256.553 30.2787L254.091 37.9385C253.094 37.5369 251.511 37.3361 249.342 37.3361C246.293 37.3361 243.625 38.541 241.339 40.9508C239.111 43.3607 237.997 46.1721 237.997 49.3852V72.623Z" fill="url(#paint3_linear_68_15)"/>
<path d="M278.541 66.7705C282.528 66.7705 285.782 65.3648 288.303 62.5533C290.941 59.7418 292.261 56.0697 292.261 51.5369C292.261 47.1189 290.941 43.4754 288.303 40.6066C285.723 37.7377 282.469 36.3033 278.541 36.3033C274.671 36.3033 271.417 37.7377 268.779 40.6066C266.14 43.4754 264.821 47.1189 264.821 51.5369C264.821 56.0123 266.14 59.6557 268.779 62.4672C271.417 65.3361 274.671 66.7705 278.541 66.7705ZM277.222 74C271.593 74 266.756 71.8197 262.71 67.459C258.723 63.041 256.73 57.7336 256.73 51.5369C256.73 45.3402 258.723 40.0328 262.71 35.6148C266.756 31.2541 271.593 29.0738 277.222 29.0738C280.388 29.0738 283.261 29.7336 285.841 31.0533C288.479 32.373 290.502 34.1229 291.909 36.3033H292.261L291.909 30.4508V11H300V72.623H292.261V66.7705H291.909C290.502 68.9508 288.479 70.7008 285.841 72.0205C283.261 73.3402 280.388 74 277.222 74Z" fill="url(#paint4_linear_68_15)"/>
<defs>
<linearGradient id="paint0_linear_68_15" x1="0" y1="0" x2="84" y2="105" gradientUnits="userSpaceOnUse">
<stop stop-color="#4FC5A8"/>
<stop offset="1" stop-color="#265F51"/>
</linearGradient>
<linearGradient id="paint1_linear_68_15" x1="304.139" y1="4.48798" x2="112.394" y2="130.184" gradientUnits="userSpaceOnUse">
<stop stop-color="#4FC5A8"/>
<stop offset="1" stop-color="#265F51"/>
</linearGradient>
<linearGradient id="paint2_linear_68_15" x1="304.139" y1="4.48798" x2="112.394" y2="130.184" gradientUnits="userSpaceOnUse">
<stop stop-color="#4FC5A8"/>
<stop offset="1" stop-color="#265F51"/>
</linearGradient>
<linearGradient id="paint3_linear_68_15" x1="304.139" y1="4.48798" x2="112.394" y2="130.184" gradientUnits="userSpaceOnUse">
<stop stop-color="#4FC5A8"/>
<stop offset="1" stop-color="#265F51"/>
</linearGradient>
<linearGradient id="paint4_linear_68_15" x1="304.139" y1="4.48798" x2="112.394" y2="130.184" gradientUnits="userSpaceOnUse">
<stop stop-color="#4FC5A8"/>
<stop offset="1" stop-color="#265F51"/>
</linearGradient>
</defs>
</svg>
