<svg width="122" height="34" viewBox="0 0 122 34" fill="none" xmlns="http://www.w3.org/2000/svg">
<path fill-rule="evenodd" clip-rule="evenodd" d="M8.09524 0C3.62436 0 0 3.62436 0 8.09524V25.9048C0 30.3756 3.62436 34 8.09524 34H25.9048C30.3756 34 34 30.3756 34 25.9048V8.09524C34 3.62436 30.3756 0 25.9048 0H8.09524ZM16.5391 5.81231C16.4038 5.9071 16.301 6.04123 16.2447 6.19647L15.4759 8.29686C14.873 9.94345 13.9184 11.4388 12.6785 12.6787C11.4386 13.9186 9.94322 14.8733 8.29663 15.4762L6.19623 16.2449C6.04099 16.3013 5.90687 16.4041 5.81208 16.5393C5.71729 16.6745 5.66645 16.8357 5.66645 17.0008C5.66645 17.166 5.71729 17.3271 5.81208 17.4623C5.90687 17.5976 6.04099 17.7004 6.19623 17.7567L8.29663 18.5255C9.94322 19.1284 11.4386 20.083 12.6785 21.3229C13.9184 22.5628 14.873 24.0582 15.4759 25.7048L16.2447 27.8036C16.301 27.9588 16.4038 28.0929 16.5391 28.1877C16.6743 28.2825 16.8354 28.3333 17.0006 28.3333C17.1657 28.3333 17.3269 28.2825 17.4621 28.1877C17.5973 28.0929 17.7001 27.9588 17.7565 27.8036L18.5252 25.7048C19.1281 24.0582 20.0828 22.5628 21.3227 21.3229C22.5626 20.083 24.0579 19.1284 25.7045 18.5255L27.8033 17.7567C27.9586 17.7004 28.0927 17.5976 28.1875 17.4623C28.2823 17.3271 28.3331 17.166 28.3331 17.0008C28.3331 16.8357 28.2823 16.6745 28.1875 16.5393C28.0927 16.4041 27.9586 16.3013 27.8033 16.2449L25.7045 15.4762C24.0579 14.8733 22.5626 13.9186 21.3227 12.6787C20.6582 12.0142 19.8548 13.7762 19.1595 15.3013C18.5574 16.622 18.0363 17.765 17.7565 17.0008V6.19647C17.7001 6.04123 17.5973 5.9071 17.4621 5.81231C17.3269 5.71753 17.1657 5.66668 17.0006 5.66668C16.8354 5.66668 16.6743 5.71753 16.5391 5.81231Z" fill="white"/>
<path d="M70.2646 4.25H73.6819L66.8828 29.1926H63.5366L58.0546 12.75H57.9122L52.4301 29.1926H49.0839L42 4.25H45.4174L50.7926 23.8627H50.935L56.4527 7.59426H59.5141L65.0317 23.8627H65.1741L70.2646 4.25Z" fill="white"/>
<path d="M77.2003 23.9672C77.2003 24.8033 77.5562 25.5 78.2682 26.0574C79.0039 26.6148 79.8582 26.8934 80.8312 26.8934C82.2077 26.8934 83.4299 26.3941 84.4978 25.3955C85.5895 24.3969 86.1353 23.224 86.1353 21.877C85.1148 21.0874 83.6909 20.6926 81.8636 20.6926C80.5346 20.6926 79.4192 21.0061 78.5174 21.6332C77.6393 22.2602 77.2003 23.0383 77.2003 23.9672ZM81.4364 11.5656C83.857 11.5656 85.7674 12.2042 87.1676 13.4816C88.5678 14.7357 89.2679 16.4658 89.2679 18.6721V29.1926H86.1353V26.8238H85.9929C84.6402 28.7746 82.8366 29.75 80.5821 29.75C78.6598 29.75 77.046 29.1926 75.7408 28.0779C74.4592 26.9631 73.8185 25.5697 73.8185 23.8975C73.8185 22.1325 74.4948 20.7275 75.8476 19.6824C77.224 18.6373 79.0513 18.1148 81.3296 18.1148C83.2756 18.1148 84.8775 18.4631 86.1353 19.1598V18.4283C86.1353 17.3135 85.6844 16.373 84.7826 15.6066C83.8808 14.8169 82.8247 14.4221 81.6144 14.4221C79.787 14.4221 78.3394 15.1769 77.2715 16.6865L74.3881 14.9098C75.9781 12.6803 78.3275 11.5656 81.4364 11.5656Z" fill="white"/>
<path d="M96.2367 29.1926H92.9617V12.123H96.0943V14.9098H96.2367C96.5689 14.0041 97.2453 13.2377 98.2658 12.6107C99.31 11.9604 100.33 11.6352 101.327 11.6352C102.276 11.6352 103.083 11.7746 103.748 12.0533L102.751 15.1537C102.348 14.9911 101.707 14.9098 100.829 14.9098C99.5947 14.9098 98.5149 15.3975 97.5894 16.3729C96.6876 17.3484 96.2367 18.4863 96.2367 19.7869V29.1926Z" fill="white"/>
<path d="M112.648 26.8238C114.261 26.8238 115.578 26.2548 116.599 25.1168C117.667 23.9788 118.201 22.4925 118.201 20.6578C118.201 18.8695 117.667 17.3948 116.599 16.2336C115.555 15.0724 114.238 14.4918 112.648 14.4918C111.081 14.4918 109.764 15.0724 108.696 16.2336C107.628 17.3948 107.094 18.8695 107.094 20.6578C107.094 22.4693 107.628 23.944 108.696 25.082C109.764 26.2432 111.081 26.8238 112.648 26.8238ZM112.114 29.75C109.835 29.75 107.877 28.8675 106.24 27.1025C104.626 25.3142 103.819 23.166 103.819 20.6578C103.819 18.1496 104.626 16.0014 106.24 14.2131C107.877 12.4481 109.835 11.5656 112.114 11.5656C113.395 11.5656 114.558 11.8326 115.602 12.3668C116.67 12.901 117.489 13.6093 118.058 14.4918H118.201L118.058 12.123V4.25H121.333V29.1926H118.201V26.8238H118.058C117.489 27.7063 116.67 28.4146 115.602 28.9488C114.558 29.4829 113.395 29.75 112.114 29.75Z" fill="white"/>
</svg>
