<svg width="34" height="34" viewBox="0 0 34 34" fill="none" xmlns="http://www.w3.org/2000/svg">
<path fill-rule="evenodd" clip-rule="evenodd" d="M8.09524 0C3.62436 0 0 3.62436 0 8.09524V25.9048C0 30.3756 3.62436 34 8.09524 34H25.9048C30.3756 34 34 30.3756 34 25.9048V8.09524C34 3.62436 30.3756 0 25.9048 0H8.09524ZM16.5391 5.81231C16.4038 5.9071 16.301 6.04123 16.2447 6.19647L15.4759 8.29686C14.873 9.94345 13.9184 11.4388 12.6785 12.6787C11.4386 13.9186 9.94322 14.8733 8.29663 15.4762L6.19623 16.2449C6.04099 16.3013 5.90687 16.4041 5.81208 16.5393C5.71729 16.6745 5.66645 16.8357 5.66645 17.0008C5.66645 17.166 5.71729 17.3271 5.81208 17.4623C5.90687 17.5976 6.04099 17.7004 6.19623 17.7567L8.29663 18.5255C9.94322 19.1284 11.4386 20.083 12.6785 21.3229C13.9184 22.5628 14.873 24.0582 15.4759 25.7048L16.2447 27.8036C16.301 27.9588 16.4038 28.0929 16.5391 28.1877C16.6743 28.2825 16.8354 28.3333 17.0006 28.3333C17.1657 28.3333 17.3269 28.2825 17.4621 28.1877C17.5973 28.0929 17.7001 27.9588 17.7565 27.8036L18.5252 25.7048C19.1281 24.0582 20.0828 22.5628 21.3227 21.3229C22.5626 20.083 24.0579 19.1284 25.7045 18.5255L27.8033 17.7567C27.9586 17.7004 28.0927 17.5976 28.1875 17.4623C28.2823 17.3271 28.3331 17.166 28.3331 17.0008C28.3331 16.8357 28.2823 16.6745 28.1875 16.5393C28.0927 16.4041 27.9586 16.3013 27.8033 16.2449L25.7045 15.4762C24.0579 14.8733 22.5626 13.9186 21.3227 12.6787C20.6582 12.0142 19.8548 13.7762 19.1595 15.3013C18.5574 16.622 18.0363 17.765 17.7565 17.0008V6.19647C17.7001 6.04123 17.5973 5.9071 17.4621 5.81231C17.3269 5.71753 17.1657 5.66668 17.0006 5.66668C16.8354 5.66668 16.6743 5.71753 16.5391 5.81231Z" fill="white"/>
</svg>
